Coordinates
version=1
nRows=9
nColumns=63
inDegrees=yes

Units are S.I. units (second, meters, Newtons, ...)
If the header above contains a line with 'inDegrees', this indicates whether rotational values are in degrees (yes) or radians (no).

endheader
time	pelvis_tilt	pelvis_list	pelvis_rotation	pelvis_tx	pelvis_ty	pelvis_tz	hip_flexion_r	hip_adduction_r	hip_rotation_r	knee_angle_r	knee_angle_r_beta	ankle_angle_r	subtalar_angle_r	mtp_angle_r	hip_flexion_l	hip_adduction_l	hip_rotation_l	knee_angle_l	knee_angle_l_beta	ankle_angle_l	subtalar_angle_l	mtp_angle_l	L5_S1_Flex_Ext	L5_S1_Lat_Bending	L5_S1_axial_rotation	L4_L5_Flex_Ext	L4_L5_Lat_Bending	L4_L5_axial_rotation	L3_L4_Flex_Ext	L3_L4_Lat_Bending	L3_L4_axial_rotation	L2_L3_Flex_Ext	L2_L3_Lat_Bending	L2_L3_axial_rotation	L1_L2_Flex_Ext	L1_L2_Lat_Bending	L1_L2_axial_rotation	L1_T12_Flex_Ext	L1_T12_Lat_Bending	L1_T12_axial_rotation	Abs_r3	Abs_r2	Abs_r1	Abs_t1	Abs_t2	neck_flexion	neck_bending	neck_rotation	arm_flex_r	arm_add_r	arm_rot_r	elbow_flex_r	pro_sup_r	wrist_flex_r	wrist_dev_r	arm_flex_l	arm_add_l	arm_rot_l	elbow_flex_l	pro_sup_l	wrist_flex_l	wrist_dev_l
3.859649	14.263160	-23.490666	112.891085	0.168041	0.339312	1.168850	38.239569	1.626215	-20.445125	17.204197	0.300270	27.964354	-6.946458	0.000000	47.842061	-2.816002	7.095580	25.863900	0.451410	30.465438	17.328008	0.000000	-0.757825	0.762587	9.116652	-1.407357	1.014240	9.686443	-1.245031	1.854153	9.686443	-0.866118	1.854153	7.977071	-0.703716	1.555067	7.407280	-0.433021	1.181247	6.837489	-5.413070	8.626533	50.704084	0.000000	0.000000	6.120651	1.852558	-45.942351	25.229193	-54.503839	-33.181165	112.381340	79.032796	-4.070541	4.923810	85.462528	38.846151	157.757532	0.043978	1.301835	-69.933395	-24.928809
3.877193	14.125339	-25.494976	112.546246	0.167641	0.338970	1.164283	39.045607	1.380697	-19.726791	15.952969	0.278432	27.260952	-6.655404	0.000000	48.488248	-2.462675	6.298844	24.607954	0.429490	29.782405	17.228681	0.000000	-0.695900	0.617019	8.924783	-1.292357	0.820635	9.482582	-1.143295	1.500220	9.482582	-0.795345	1.500220	7.809185	-0.646213	1.258225	7.251386	-0.397638	0.955762	6.693587	-4.970747	6.979841	49.636965	0.000000	0.000000	6.423501	0.949239	-45.150723	25.280243	-52.506558	-32.990830	109.047167	81.441148	-6.270102	5.989497	83.931761	36.252976	155.285193	0.046827	1.348150	-70.012631	-24.980837
3.894737	14.018202	-27.539756	112.136467	0.166986	0.338266	1.160001	40.060939	1.105192	-19.012148	14.963855	0.261169	26.645361	-6.275255	0.000000	49.242619	-2.136297	5.507891	23.406919	0.408528	29.177697	17.086890	0.000000	-0.635234	0.476899	8.641031	-1.179693	0.634276	9.181096	-1.043626	1.159532	9.181096	-0.726009	1.159532	7.560902	-0.589878	0.972492	7.020838	-0.362973	0.738716	6.480774	-4.537414	5.394776	48.058824	0.000000	0.000000	6.934083	-0.022465	-43.705023	25.726397	-50.038801	-32.131489	105.396082	84.083937	-8.470900	6.723233	82.279502	33.324202	152.441252	0.049612	1.375060	-70.449435	-24.915897
3.912281	13.926636	-29.579857	111.653084	0.166027	0.337211	1.156054	41.260551	0.796466	-18.328008	14.271905	0.249092	26.152938	-5.790097	0.000000	50.083756	-1.835225	4.752677	22.294258	0.389108	28.641104	16.856741	0.000000	-0.574185	0.344409	8.270143	-1.066319	0.458064	8.787027	-0.943328	0.837396	8.787027	-0.656236	0.837396	7.236375	-0.533188	0.702318	6.719491	-0.328089	0.533489	6.202608	-4.101344	3.896021	45.996056	0.000000	0.000000	7.685664	-0.988504	-41.610461	26.464290	-47.150291	-30.689514	101.474343	86.680962	-10.502065	7.202084	80.473796	30.107718	149.391930	0.052820	1.373161	-71.277750	-24.689096
3.929825	13.825014	-31.521358	111.079413	0.164756	0.335956	1.152412	42.548186	0.479476	-17.696287	13.866414	0.242015	25.797242	-5.201689	0.000000	50.917126	-1.571447	4.071847	21.258997	0.371039	28.177125	16.515002	0.000000	-0.517813	0.224387	7.817801	-0.961631	0.298435	8.306414	-0.850715	0.545574	8.306414	-0.591808	0.545574	6.840576	-0.480841	0.457570	6.351964	-0.295878	0.347575	5.863351	-3.698687	2.538309	43.480266	0.000000	0.000000	8.640625	-1.873965	-38.854180	27.518155	-43.891398	-28.669442	97.227224	89.042415	-12.386955	7.233741	78.479245	26.626950	146.171064	0.057291	1.312745	-72.240715	-24.424449
3.947368	13.666776	-33.334302	110.409051	0.163222	0.334600	1.149048	43.899127	0.141371	-17.090169	13.760460	0.240165	25.571633	-4.595884	0.000000	51.704276	-1.320685	3.470896	20.287465	0.354083	27.773958	16.082763	0.000000	-0.466047	0.113667	7.301247	-0.865496	0.151176	7.757575	-0.765669	0.276369	7.757575	-0.532645	0.276369	6.388591	-0.432771	0.231789	5.932263	-0.266299	0.176069	5.475935	-3.328928	1.285818	40.607344	0.000000	0.000000	9.805907	-2.606603	-35.569523	28.834597	-40.364499	-26.204182	92.633156	90.837043	-14.135685	6.723388	76.300269	22.919657	143.083841	0.059664	1.122462	-72.827390	-24.187121
3.964912	13.417842	-34.991843	109.614120	0.161490	0.333234	1.145921	45.280386	-0.213594	-16.504842	13.940673	0.243311	25.458451	-3.978066	0.000000	52.403458	-1.078312	2.973534	19.354478	0.337799	27.435167	15.531965	0.000000	-0.420865	0.010132	6.738081	-0.781588	0.013475	7.159211	-0.691439	0.024634	7.159211	-0.481006	0.024634	5.895821	-0.390815	0.020660	5.474691	-0.240482	0.015694	5.053561	-3.006195	0.114611	37.475184	0.000000	0.000000	11.228045	-3.087859	-31.835732	30.405837	-36.646806	-23.479863	87.652681	91.584548	-15.666645	5.720417	73.967808	19.033001	140.317308	0.048556	1.172180	-72.551923	-23.789037
3.982456	13.064909	-36.501389	108.700205	0.159616	0.331861	1.142987	46.697867	-0.588328	-15.920743	14.408558	0.251477	25.435456	-3.413381	0.000000	53.016217	-0.841531	2.535359	18.456059	0.322119	27.187688	14.955169	0.000000	-0.379204	-0.089140	6.137761	-0.704220	-0.118556	6.521371	-0.622995	-0.216735	6.521371	-0.433393	-0.216735	5.370541	-0.352129	-0.181775	4.986931	-0.216677	-0.138078	4.603321	-2.708618	-1.008371	34.136385	0.000000	0.000000	12.894018	-3.239570	-27.760720	32.211433	-32.839926	-20.706479	82.273048	91.427269	-17.028087	4.342322	71.466812	15.023464	138.395708	-0.005034	1.365069	-71.183286	-23.129187
4.000000	12.676607	-37.844359	107.757321	0.157508	0.330414	1.140374	48.141933	-0.977720	-15.440693	15.160330	0.264598	25.495855	-2.890760	0.000000	53.594227	-0.622871	2.158038	17.671768	0.308431	27.073453	14.436894	0.000000	-0.335652	-0.174338	5.498777	-0.623338	-0.231870	5.842451	-0.551442	-0.423885	5.842451	-0.383616	-0.423885	4.811430	-0.311686	-0.355510	4.467757	-0.191791	-0.270050	4.124083	-2.397525	-1.972147	30.582550	0.000000	0.000000	14.747533	-3.006091	-23.334606	34.146199	-29.394606	-21.931574	77.124430	94.135558	-18.593520	2.798005	68.758405	10.985854	137.418810	-0.087625	1.595242	-68.699467	-22.244073
